<?xml version="1.0" encoding="UTF-8"?>
<svg xmlns="http://www.w3.org/2000/svg" xmlns:xlink="http://www.w3.org/1999/xlink">


    <symbol id="icon-logo" viewBox="0 0 230 26" fill="none" xmlns="http://www.w3.org/2000/svg">
        <path d="M16.4395 25C16.291 24.3815 15.957 24.0475 15.4375 23.998H12.9141V3.73633H13.5449C15.3262 3.73633 16.5879 4.52799 17.3301 6.11133C17.4785 6.45768 17.6393 6.86589 17.8125 7.33594L18.9629 10.6758H20.0762L19.9277 2.73438H0.705078L0.556641 10.6758H1.66992L2.82031 7.33594C3.36458 5.7526 4.06966 4.71354 4.93555 4.21875C5.5293 3.89714 6.24674 3.73633 7.08789 3.73633H7.71875V23.998H4.19336V25H16.4395ZM29.7988 24.0352H28.4258V9.04297H21.5605V10.0078H23.7129V22.1055C23.7129 23.194 23.2799 23.8125 22.4141 23.9609C22.1667 24.0104 21.8822 24.0352 21.5605 24.0352V25H30.6895C30.6895 24.431 30.5286 24.1217 30.207 24.0723C30.0833 24.0475 29.9473 24.0352 29.7988 24.0352ZM28.7598 4.18164C28.7598 3.0931 28.2773 2.28906 27.3125 1.76953C26.8919 1.52214 26.4466 1.39844 25.9766 1.39844C24.9128 1.39844 24.1087 1.88086 23.5645 2.8457C23.3418 3.26628 23.2305 3.71159 23.2305 4.18164C23.2305 5.27018 23.7129 6.06185 24.6777 6.55664C25.0983 6.7793 25.5312 6.89062 25.9766 6.89062C27.0651 6.89062 27.8691 6.43294 28.3887 5.51758C28.6361 5.09701 28.7598 4.65169 28.7598 4.18164ZM39.707 24.0352H39.0391L39.0762 14.4609C39.2246 12.5065 39.8678 11.2324 41.0059 10.6387C41.3275 10.4655 41.6491 10.3789 41.9707 10.3789C42.8861 10.3789 43.5417 10.9479 43.9375 12.0859C44.1107 12.6302 44.1973 13.2363 44.1973 13.9043V22.1055C44.1973 23.1198 43.9622 23.7259 43.4922 23.9238C43.2695 23.998 42.9603 24.0352 42.5645 24.0352V25H50.4316C50.4316 24.431 50.2708 24.1217 49.9492 24.0723C49.8008 24.0475 49.6523 24.0352 49.5039 24.0352H48.873V14.5352V14.2754C49.0462 12.222 49.7142 10.9479 50.877 10.4531C51.1243 10.3542 51.3717 10.3047 51.6191 10.3047C52.6829 10.3047 53.4128 10.9355 53.8086 12.1973C53.957 12.7168 54.0312 13.2858 54.0312 13.9043V22.1055C54.0312 23.1198 53.7962 23.7259 53.3262 23.9238C53.1035 23.998 52.7943 24.0352 52.3984 24.0352V25H60.8594C60.8594 24.431 60.6986 24.1217 60.377 24.0723C60.2285 24.0475 60.0801 24.0352 59.9316 24.0352H58.707V14.3496C58.707 11.9251 57.903 10.2057 56.2949 9.19141C55.5527 8.72135 54.7487 8.48633 53.8828 8.48633C51.4831 8.51107 49.6895 9.66146 48.502 11.9375C47.9082 10.181 46.8568 9.08008 45.3477 8.63477C44.9518 8.53581 44.556 8.48633 44.1602 8.48633C41.7852 8.51107 40.0534 9.59961 38.9648 11.752L38.7793 9.04297H32.1738V10.0078H34.3262V22.1055C34.3262 23.2435 33.7943 23.8743 32.7305 23.998C32.5573 24.0228 32.3717 24.0352 32.1738 24.0352V25H40.5977C40.5977 24.431 40.4368 24.1217 40.1152 24.0723C39.9915 24.0475 39.8555 24.0352 39.707 24.0352ZM73.2539 25.3711C75.6784 25.3711 77.6204 24.4557 79.0801 22.625C80.3665 21.0169 81.0098 18.9759 81.0098 16.502C81.0098 13.2858 80.0078 10.9727 78.0039 9.5625C76.9648 8.84505 75.8145 8.48633 74.5527 8.48633C72.0046 8.51107 70.0872 9.77279 68.8008 12.2715V0.878906H61.9727V1.88086H64.0879V22.0684C64.0879 23.1322 63.6797 23.7507 62.8633 23.9238C62.5911 23.9733 62.2943 23.998 61.9727 23.998V25H67.6504L67.9473 22.4023C69.2585 24.3568 71.0273 25.3464 73.2539 25.3711ZM72.7344 10.2676C74.862 10.3171 75.9258 12.5684 75.9258 17.0215C75.901 21.8952 74.7507 24.3444 72.4746 24.3691C70.8665 24.3691 69.778 23.3053 69.209 21.1777C68.9368 20.1882 68.8008 19.0378 68.8008 17.7266C68.8008 14.3372 69.5182 12.0612 70.9531 10.8984C71.4974 10.4779 72.0911 10.2676 72.7344 10.2676ZM91.4746 9.45117C93.0579 9.50065 93.862 10.849 93.8867 13.4961C93.8867 14.6589 93.5404 15.3763 92.8477 15.6484C92.3529 15.8216 91.6107 15.8835 90.6211 15.834L88.2461 15.7227C88.4193 11.6159 89.4954 9.52539 91.4746 9.45117ZM98.4141 21.1777L97.5234 20.8809C96.8307 22.39 95.7422 23.4167 94.2578 23.9609C93.6641 24.1836 93.0579 24.2949 92.4395 24.2949C90.4603 24.2949 89.1862 23.0332 88.6172 20.5098C88.3945 19.4707 88.2708 18.2337 88.2461 16.7988L91.6602 16.9102C95.6432 17.0339 97.9564 16.403 98.5996 15.0176C98.748 14.6712 98.8223 14.2878 98.8223 13.8672C98.8223 11.7643 97.7461 10.2305 95.5938 9.26562C94.3815 8.74609 93.0085 8.48633 91.4746 8.48633C88.679 8.48633 86.502 9.4388 84.9434 11.3438C83.7559 12.8281 83.1621 14.6712 83.1621 16.873C83.1621 20.4603 84.5104 22.959 87.207 24.3691C88.4935 25.0371 89.9531 25.3711 91.5859 25.3711C94.4805 25.3711 96.5586 24.3568 97.8203 22.3281C98.0677 21.957 98.2656 21.5736 98.4141 21.1777ZM110.066 24.0352H107.32V16.0195C107.493 13.4219 108.124 11.8385 109.213 11.2695C109.386 11.1953 109.547 11.1582 109.695 11.1582C109.967 11.1582 110.264 11.4427 110.586 12.0117C111.031 12.8034 111.514 13.2982 112.033 13.4961C112.281 13.5703 112.553 13.6074 112.85 13.6074C113.839 13.6074 114.544 13.1374 114.965 12.1973C115.113 11.8757 115.188 11.5417 115.188 11.1953C115.188 9.95833 114.581 9.17904 113.369 8.85742C113.072 8.7832 112.763 8.74609 112.441 8.74609C110.908 8.74609 109.559 9.35221 108.396 10.5645C107.877 11.1582 107.481 11.8014 107.209 12.4941L106.949 9.04297H100.455V10.0078H102.607V22.1055C102.607 23.194 102.174 23.8125 101.309 23.9609C101.061 24.0104 100.777 24.0352 100.455 24.0352V25H110.957C110.957 24.431 110.796 24.1217 110.475 24.0723C110.351 24.0475 110.215 24.0352 110.066 24.0352ZM123.648 24.0352H122.98L123.018 14.4609C123.166 12.5065 123.809 11.2324 124.947 10.6387C125.269 10.4655 125.59 10.3789 125.912 10.3789C126.827 10.3789 127.483 10.9479 127.879 12.0859C128.052 12.6302 128.139 13.2363 128.139 13.9043V22.1055C128.139 23.1198 127.904 23.7259 127.434 23.9238C127.211 23.998 126.902 24.0352 126.506 24.0352V25H134.373C134.373 24.431 134.212 24.1217 133.891 24.0723C133.742 24.0475 133.594 24.0352 133.445 24.0352H132.814V14.5352V14.2754C132.988 12.222 133.656 10.9479 134.818 10.4531C135.066 10.3542 135.313 10.3047 135.561 10.3047C136.624 10.3047 137.354 10.9355 137.75 12.1973C137.898 12.7168 137.973 13.2858 137.973 13.9043V22.1055C137.973 23.1198 137.738 23.7259 137.268 23.9238C137.045 23.998 136.736 24.0352 136.34 24.0352V25H144.801C144.801 24.431 144.64 24.1217 144.318 24.0723C144.17 24.0475 144.021 24.0352 143.873 24.0352H142.648V14.3496C142.648 11.9251 141.844 10.2057 140.236 9.19141C139.494 8.72135 138.69 8.48633 137.824 8.48633C135.424 8.51107 133.631 9.66146 132.443 11.9375C131.85 10.181 130.798 9.08008 129.289 8.63477C128.893 8.53581 128.497 8.48633 128.102 8.48633C125.727 8.51107 123.995 9.59961 122.906 11.752L122.721 9.04297H116.115V10.0078H118.268V22.1055C118.268 23.2435 117.736 23.8743 116.672 23.998C116.499 24.0228 116.313 24.0352 116.115 24.0352V25H124.539C124.539 24.431 124.378 24.1217 124.057 24.0723C123.933 24.0475 123.797 24.0352 123.648 24.0352ZM159.756 25.3711C161.562 25.3711 162.688 24.7155 163.133 23.4043C163.281 22.9095 163.393 22.2786 163.467 21.5117L162.502 21.4746C162.354 23.1816 161.921 24.0475 161.203 24.0723C160.659 24.0228 160.387 23.4043 160.387 22.2168V14.4609C160.387 11.3685 158.952 9.46354 156.082 8.74609C155.34 8.57292 154.536 8.48633 153.67 8.48633C150.305 8.48633 148.19 9.21615 147.324 10.6758C147.102 11.0469 146.99 11.4427 146.99 11.8633C146.99 12.8281 147.448 13.4342 148.363 13.6816C148.586 13.7559 148.821 13.793 149.068 13.793C150.132 13.793 150.85 13.2734 151.221 12.2344C151.27 12.0859 151.344 11.8385 151.443 11.4922C151.715 10.5026 152.062 9.88411 152.482 9.63672C152.755 9.51302 153.064 9.45117 153.41 9.45117C154.573 9.45117 155.278 10.1562 155.525 11.5664C155.624 12.0859 155.674 12.7044 155.674 13.4219V15.834C149.316 15.9577 146.124 17.64 146.1 20.8809C146.1 23.0827 147.064 24.4928 148.994 25.1113C149.563 25.2845 150.194 25.3711 150.887 25.3711C152.99 25.3711 154.536 24.5794 155.525 22.9961C155.723 22.6745 155.884 22.3405 156.008 21.9941C156.527 24.1217 157.777 25.2474 159.756 25.3711ZM152.816 23.7754C151.579 23.7259 150.949 22.625 150.924 20.4727C150.924 18.8398 151.592 17.776 152.928 17.2812C153.645 17.0586 154.561 16.9225 155.674 16.873V20.4727C155.204 22.2044 154.449 23.2682 153.41 23.6641C153.188 23.7383 152.99 23.7754 152.816 23.7754ZM174.006 24.0352H171.26V16.0195C171.433 13.4219 172.064 11.8385 173.152 11.2695C173.326 11.1953 173.486 11.1582 173.635 11.1582C173.907 11.1582 174.204 11.4427 174.525 12.0117C174.971 12.8034 175.453 13.2982 175.973 13.4961C176.22 13.5703 176.492 13.6074 176.789 13.6074C177.779 13.6074 178.484 13.1374 178.904 12.1973C179.053 11.8757 179.127 11.5417 179.127 11.1953C179.127 9.95833 178.521 9.17904 177.309 8.85742C177.012 8.7832 176.702 8.74609 176.381 8.74609C174.847 8.74609 173.499 9.35221 172.336 10.5645C171.816 11.1582 171.421 11.8014 171.148 12.4941L170.889 9.04297H164.395V10.0078H166.547V22.1055C166.547 23.194 166.114 23.8125 165.248 23.9609C165.001 24.0104 164.716 24.0352 164.395 24.0352V25H174.896C174.896 24.431 174.736 24.1217 174.414 24.0723C174.29 24.0475 174.154 24.0352 174.006 24.0352ZM189.332 24.0352H187.402V18.3203L188.553 17.207L193.08 25.0371L199.24 25C199.24 24.4557 199.092 24.1465 198.795 24.0723C198.671 24.0475 198.523 24.0352 198.35 24.0352H197.793L191.818 14.0527L194.564 11.418C195.43 10.6016 196.098 10.1439 196.568 10.0449C196.766 10.0202 196.964 10.0078 197.162 10.0078C197.706 10.0078 198.016 9.8099 198.09 9.41406C198.115 9.29036 198.127 9.16667 198.127 9.04297H191.855V10.0078H194.564L187.402 16.7988V0.878906H179.869V1.84375H182.689V22.1055C182.64 23.3919 181.7 24.0352 179.869 24.0352V25H190.223C190.223 24.431 190.062 24.1217 189.74 24.0723C189.617 24.0475 189.48 24.0352 189.332 24.0352ZM208.295 9.45117C209.878 9.50065 210.682 10.849 210.707 13.4961C210.707 14.6589 210.361 15.3763 209.668 15.6484C209.173 15.8216 208.431 15.8835 207.441 15.834L205.066 15.7227C205.24 11.6159 206.316 9.52539 208.295 9.45117ZM215.234 21.1777L214.344 20.8809C213.651 22.39 212.562 23.4167 211.078 23.9609C210.484 24.1836 209.878 24.2949 209.26 24.2949C207.281 24.2949 206.007 23.0332 205.438 20.5098C205.215 19.4707 205.091 18.2337 205.066 16.7988L208.48 16.9102C212.464 17.0339 214.777 16.403 215.42 15.0176C215.568 14.6712 215.643 14.2878 215.643 13.8672C215.643 11.7643 214.566 10.2305 212.414 9.26562C211.202 8.74609 209.829 8.48633 208.295 8.48633C205.499 8.48633 203.322 9.4388 201.764 11.3438C200.576 12.8281 199.982 14.6712 199.982 16.873C199.982 20.4603 201.331 22.959 204.027 24.3691C205.314 25.0371 206.773 25.3711 208.406 25.3711C211.301 25.3711 213.379 24.3568 214.641 22.3281C214.888 21.957 215.086 21.5736 215.234 21.1777ZM217.09 10.1934H219.65V19.4707C219.65 23.0579 221.135 25.0247 224.104 25.3711C224.4 25.3958 224.697 25.4082 224.994 25.4082C226.899 25.4082 228.21 24.7897 228.928 23.5527C229.274 22.9342 229.546 22.1178 229.744 21.1035L228.742 20.9551C228.247 22.959 227.518 24.0599 226.553 24.2578C226.404 24.2826 226.256 24.2949 226.107 24.2949C225.192 24.2949 224.635 23.6517 224.438 22.3652C224.388 22.0684 224.363 21.7591 224.363 21.4375V10.1934H229.262V9.22852H224.363V4.92383L219.65 5.70312V9.22852H217.09V10.1934Z"
              fill="#5A9A70"/>
    </symbol>


    <symbol id="icon-logo-footer" viewBox="0 0 230 26" fill="none" xmlns="http://www.w3.org/2000/svg">
        <path d="M16.4395 25C16.291 24.3815 15.957 24.0475 15.4375 23.998H12.9141V3.73633H13.5449C15.3262 3.73633 16.5879 4.52799 17.3301 6.11133C17.4785 6.45768 17.6393 6.86589 17.8125 7.33594L18.9629 10.6758H20.0762L19.9277 2.73438H0.705078L0.556641 10.6758H1.66992L2.82031 7.33594C3.36458 5.7526 4.06966 4.71354 4.93555 4.21875C5.5293 3.89714 6.24674 3.73633 7.08789 3.73633H7.71875V23.998H4.19336V25H16.4395ZM29.7988 24.0352H28.4258V9.04297H21.5605V10.0078H23.7129V22.1055C23.7129 23.194 23.2799 23.8125 22.4141 23.9609C22.1667 24.0104 21.8822 24.0352 21.5605 24.0352V25H30.6895C30.6895 24.431 30.5286 24.1217 30.207 24.0723C30.0833 24.0475 29.9473 24.0352 29.7988 24.0352ZM28.7598 4.18164C28.7598 3.0931 28.2773 2.28906 27.3125 1.76953C26.8919 1.52214 26.4466 1.39844 25.9766 1.39844C24.9128 1.39844 24.1087 1.88086 23.5645 2.8457C23.3418 3.26628 23.2305 3.71159 23.2305 4.18164C23.2305 5.27018 23.7129 6.06185 24.6777 6.55664C25.0983 6.7793 25.5312 6.89062 25.9766 6.89062C27.0651 6.89062 27.8691 6.43294 28.3887 5.51758C28.6361 5.09701 28.7598 4.65169 28.7598 4.18164ZM39.707 24.0352H39.0391L39.0762 14.4609C39.2246 12.5065 39.8678 11.2324 41.0059 10.6387C41.3275 10.4655 41.6491 10.3789 41.9707 10.3789C42.8861 10.3789 43.5417 10.9479 43.9375 12.0859C44.1107 12.6302 44.1973 13.2363 44.1973 13.9043V22.1055C44.1973 23.1198 43.9622 23.7259 43.4922 23.9238C43.2695 23.998 42.9603 24.0352 42.5645 24.0352V25H50.4316C50.4316 24.431 50.2708 24.1217 49.9492 24.0723C49.8008 24.0475 49.6523 24.0352 49.5039 24.0352H48.873V14.5352V14.2754C49.0462 12.222 49.7142 10.9479 50.877 10.4531C51.1243 10.3542 51.3717 10.3047 51.6191 10.3047C52.6829 10.3047 53.4128 10.9355 53.8086 12.1973C53.957 12.7168 54.0312 13.2858 54.0312 13.9043V22.1055C54.0312 23.1198 53.7962 23.7259 53.3262 23.9238C53.1035 23.998 52.7943 24.0352 52.3984 24.0352V25H60.8594C60.8594 24.431 60.6986 24.1217 60.377 24.0723C60.2285 24.0475 60.0801 24.0352 59.9316 24.0352H58.707V14.3496C58.707 11.9251 57.903 10.2057 56.2949 9.19141C55.5527 8.72135 54.7487 8.48633 53.8828 8.48633C51.4831 8.51107 49.6895 9.66146 48.502 11.9375C47.9082 10.181 46.8568 9.08008 45.3477 8.63477C44.9518 8.53581 44.556 8.48633 44.1602 8.48633C41.7852 8.51107 40.0534 9.59961 38.9648 11.752L38.7793 9.04297H32.1738V10.0078H34.3262V22.1055C34.3262 23.2435 33.7943 23.8743 32.7305 23.998C32.5573 24.0228 32.3717 24.0352 32.1738 24.0352V25H40.5977C40.5977 24.431 40.4368 24.1217 40.1152 24.0723C39.9915 24.0475 39.8555 24.0352 39.707 24.0352ZM73.2539 25.3711C75.6784 25.3711 77.6204 24.4557 79.0801 22.625C80.3665 21.0169 81.0098 18.9759 81.0098 16.502C81.0098 13.2858 80.0078 10.9727 78.0039 9.5625C76.9648 8.84505 75.8145 8.48633 74.5527 8.48633C72.0046 8.51107 70.0872 9.77279 68.8008 12.2715V0.878906H61.9727V1.88086H64.0879V22.0684C64.0879 23.1322 63.6797 23.7507 62.8633 23.9238C62.5911 23.9733 62.2943 23.998 61.9727 23.998V25H67.6504L67.9473 22.4023C69.2585 24.3568 71.0273 25.3464 73.2539 25.3711ZM72.7344 10.2676C74.862 10.3171 75.9258 12.5684 75.9258 17.0215C75.901 21.8952 74.7507 24.3444 72.4746 24.3691C70.8665 24.3691 69.778 23.3053 69.209 21.1777C68.9368 20.1882 68.8008 19.0378 68.8008 17.7266C68.8008 14.3372 69.5182 12.0612 70.9531 10.8984C71.4974 10.4779 72.0911 10.2676 72.7344 10.2676ZM91.4746 9.45117C93.0579 9.50065 93.862 10.849 93.8867 13.4961C93.8867 14.6589 93.5404 15.3763 92.8477 15.6484C92.3529 15.8216 91.6107 15.8835 90.6211 15.834L88.2461 15.7227C88.4193 11.6159 89.4954 9.52539 91.4746 9.45117ZM98.4141 21.1777L97.5234 20.8809C96.8307 22.39 95.7422 23.4167 94.2578 23.9609C93.6641 24.1836 93.0579 24.2949 92.4395 24.2949C90.4603 24.2949 89.1862 23.0332 88.6172 20.5098C88.3945 19.4707 88.2708 18.2337 88.2461 16.7988L91.6602 16.9102C95.6432 17.0339 97.9564 16.403 98.5996 15.0176C98.748 14.6712 98.8223 14.2878 98.8223 13.8672C98.8223 11.7643 97.7461 10.2305 95.5938 9.26562C94.3815 8.74609 93.0085 8.48633 91.4746 8.48633C88.679 8.48633 86.502 9.4388 84.9434 11.3438C83.7559 12.8281 83.1621 14.6712 83.1621 16.873C83.1621 20.4603 84.5104 22.959 87.207 24.3691C88.4935 25.0371 89.9531 25.3711 91.5859 25.3711C94.4805 25.3711 96.5586 24.3568 97.8203 22.3281C98.0677 21.957 98.2656 21.5736 98.4141 21.1777ZM110.066 24.0352H107.32V16.0195C107.493 13.4219 108.124 11.8385 109.213 11.2695C109.386 11.1953 109.547 11.1582 109.695 11.1582C109.967 11.1582 110.264 11.4427 110.586 12.0117C111.031 12.8034 111.514 13.2982 112.033 13.4961C112.281 13.5703 112.553 13.6074 112.85 13.6074C113.839 13.6074 114.544 13.1374 114.965 12.1973C115.113 11.8757 115.188 11.5417 115.188 11.1953C115.188 9.95833 114.581 9.17904 113.369 8.85742C113.072 8.7832 112.763 8.74609 112.441 8.74609C110.908 8.74609 109.559 9.35221 108.396 10.5645C107.877 11.1582 107.481 11.8014 107.209 12.4941L106.949 9.04297H100.455V10.0078H102.607V22.1055C102.607 23.194 102.174 23.8125 101.309 23.9609C101.061 24.0104 100.777 24.0352 100.455 24.0352V25H110.957C110.957 24.431 110.796 24.1217 110.475 24.0723C110.351 24.0475 110.215 24.0352 110.066 24.0352ZM123.648 24.0352H122.98L123.018 14.4609C123.166 12.5065 123.809 11.2324 124.947 10.6387C125.269 10.4655 125.59 10.3789 125.912 10.3789C126.827 10.3789 127.483 10.9479 127.879 12.0859C128.052 12.6302 128.139 13.2363 128.139 13.9043V22.1055C128.139 23.1198 127.904 23.7259 127.434 23.9238C127.211 23.998 126.902 24.0352 126.506 24.0352V25H134.373C134.373 24.431 134.212 24.1217 133.891 24.0723C133.742 24.0475 133.594 24.0352 133.445 24.0352H132.814V14.5352V14.2754C132.988 12.222 133.656 10.9479 134.818 10.4531C135.066 10.3542 135.313 10.3047 135.561 10.3047C136.624 10.3047 137.354 10.9355 137.75 12.1973C137.898 12.7168 137.973 13.2858 137.973 13.9043V22.1055C137.973 23.1198 137.738 23.7259 137.268 23.9238C137.045 23.998 136.736 24.0352 136.34 24.0352V25H144.801C144.801 24.431 144.64 24.1217 144.318 24.0723C144.17 24.0475 144.021 24.0352 143.873 24.0352H142.648V14.3496C142.648 11.9251 141.844 10.2057 140.236 9.19141C139.494 8.72135 138.69 8.48633 137.824 8.48633C135.424 8.51107 133.631 9.66146 132.443 11.9375C131.85 10.181 130.798 9.08008 129.289 8.63477C128.893 8.53581 128.497 8.48633 128.102 8.48633C125.727 8.51107 123.995 9.59961 122.906 11.752L122.721 9.04297H116.115V10.0078H118.268V22.1055C118.268 23.2435 117.736 23.8743 116.672 23.998C116.499 24.0228 116.313 24.0352 116.115 24.0352V25H124.539C124.539 24.431 124.378 24.1217 124.057 24.0723C123.933 24.0475 123.797 24.0352 123.648 24.0352ZM159.756 25.3711C161.562 25.3711 162.688 24.7155 163.133 23.4043C163.281 22.9095 163.393 22.2786 163.467 21.5117L162.502 21.4746C162.354 23.1816 161.921 24.0475 161.203 24.0723C160.659 24.0228 160.387 23.4043 160.387 22.2168V14.4609C160.387 11.3685 158.952 9.46354 156.082 8.74609C155.34 8.57292 154.536 8.48633 153.67 8.48633C150.305 8.48633 148.19 9.21615 147.324 10.6758C147.102 11.0469 146.99 11.4427 146.99 11.8633C146.99 12.8281 147.448 13.4342 148.363 13.6816C148.586 13.7559 148.821 13.793 149.068 13.793C150.132 13.793 150.85 13.2734 151.221 12.2344C151.27 12.0859 151.344 11.8385 151.443 11.4922C151.715 10.5026 152.062 9.88411 152.482 9.63672C152.755 9.51302 153.064 9.45117 153.41 9.45117C154.573 9.45117 155.278 10.1562 155.525 11.5664C155.624 12.0859 155.674 12.7044 155.674 13.4219V15.834C149.316 15.9577 146.124 17.64 146.1 20.8809C146.1 23.0827 147.064 24.4928 148.994 25.1113C149.563 25.2845 150.194 25.3711 150.887 25.3711C152.99 25.3711 154.536 24.5794 155.525 22.9961C155.723 22.6745 155.884 22.3405 156.008 21.9941C156.527 24.1217 157.777 25.2474 159.756 25.3711ZM152.816 23.7754C151.579 23.7259 150.949 22.625 150.924 20.4727C150.924 18.8398 151.592 17.776 152.928 17.2812C153.645 17.0586 154.561 16.9225 155.674 16.873V20.4727C155.204 22.2044 154.449 23.2682 153.41 23.6641C153.188 23.7383 152.99 23.7754 152.816 23.7754ZM174.006 24.0352H171.26V16.0195C171.433 13.4219 172.064 11.8385 173.152 11.2695C173.326 11.1953 173.486 11.1582 173.635 11.1582C173.907 11.1582 174.204 11.4427 174.525 12.0117C174.971 12.8034 175.453 13.2982 175.973 13.4961C176.22 13.5703 176.492 13.6074 176.789 13.6074C177.779 13.6074 178.484 13.1374 178.904 12.1973C179.053 11.8757 179.127 11.5417 179.127 11.1953C179.127 9.95833 178.521 9.17904 177.309 8.85742C177.012 8.7832 176.702 8.74609 176.381 8.74609C174.847 8.74609 173.499 9.35221 172.336 10.5645C171.816 11.1582 171.421 11.8014 171.148 12.4941L170.889 9.04297H164.395V10.0078H166.547V22.1055C166.547 23.194 166.114 23.8125 165.248 23.9609C165.001 24.0104 164.716 24.0352 164.395 24.0352V25H174.896C174.896 24.431 174.736 24.1217 174.414 24.0723C174.29 24.0475 174.154 24.0352 174.006 24.0352ZM189.332 24.0352H187.402V18.3203L188.553 17.207L193.08 25.0371L199.24 25C199.24 24.4557 199.092 24.1465 198.795 24.0723C198.671 24.0475 198.523 24.0352 198.35 24.0352H197.793L191.818 14.0527L194.564 11.418C195.43 10.6016 196.098 10.1439 196.568 10.0449C196.766 10.0202 196.964 10.0078 197.162 10.0078C197.706 10.0078 198.016 9.8099 198.09 9.41406C198.115 9.29036 198.127 9.16667 198.127 9.04297H191.855V10.0078H194.564L187.402 16.7988V0.878906H179.869V1.84375H182.689V22.1055C182.64 23.3919 181.7 24.0352 179.869 24.0352V25H190.223C190.223 24.431 190.062 24.1217 189.74 24.0723C189.617 24.0475 189.48 24.0352 189.332 24.0352ZM208.295 9.45117C209.878 9.50065 210.682 10.849 210.707 13.4961C210.707 14.6589 210.361 15.3763 209.668 15.6484C209.173 15.8216 208.431 15.8835 207.441 15.834L205.066 15.7227C205.24 11.6159 206.316 9.52539 208.295 9.45117ZM215.234 21.1777L214.344 20.8809C213.651 22.39 212.562 23.4167 211.078 23.9609C210.484 24.1836 209.878 24.2949 209.26 24.2949C207.281 24.2949 206.007 23.0332 205.438 20.5098C205.215 19.4707 205.091 18.2337 205.066 16.7988L208.48 16.9102C212.464 17.0339 214.777 16.403 215.42 15.0176C215.568 14.6712 215.643 14.2878 215.643 13.8672C215.643 11.7643 214.566 10.2305 212.414 9.26562C211.202 8.74609 209.829 8.48633 208.295 8.48633C205.499 8.48633 203.322 9.4388 201.764 11.3438C200.576 12.8281 199.982 14.6712 199.982 16.873C199.982 20.4603 201.331 22.959 204.027 24.3691C205.314 25.0371 206.773 25.3711 208.406 25.3711C211.301 25.3711 213.379 24.3568 214.641 22.3281C214.888 21.957 215.086 21.5736 215.234 21.1777ZM217.09 10.1934H219.65V19.4707C219.65 23.0579 221.135 25.0247 224.104 25.3711C224.4 25.3958 224.697 25.4082 224.994 25.4082C226.899 25.4082 228.21 24.7897 228.928 23.5527C229.274 22.9342 229.546 22.1178 229.744 21.1035L228.742 20.9551C228.247 22.959 227.518 24.0599 226.553 24.2578C226.404 24.2826 226.256 24.2949 226.107 24.2949C225.192 24.2949 224.635 23.6517 224.438 22.3652C224.388 22.0684 224.363 21.7591 224.363 21.4375V10.1934H229.262V9.22852H224.363V4.92383L219.65 5.70312V9.22852H217.09V10.1934Z"
              fill="#5A9A70"/>
    </symbol>


    <symbol id="icon-ru" viewBox="0 0 18 13" fill="none" xmlns="http://www.w3.org/2000/svg">
        <path d="M1 0.5H0.5V1V12V12.5H1H17H17.5V12V1V0.5H17H1Z" fill="white" stroke="black"/>
        <path fill-rule="evenodd" clip-rule="evenodd" d="M1 4.66675H17V12.0001H1V4.66675Z" fill="#0039A6"/>
        <path fill-rule="evenodd" clip-rule="evenodd" d="M1 8.33325H17V11.9999H1V8.33325Z" fill="#D52B1E"/>
    </symbol>


    <symbol id="icon-en" viewBox="0 0 18 13" fill="none" xmlns="http://www.w3.org/2000/svg">
        <g clip-path="url(#clip0)">
            <path d="M1 1H17V12.0293H1V1Z" fill="#012169"/>
            <path d="M1 1V2.23218L15.2109 12.0293H17V10.7971L2.78906 1H1ZM17 1V2.23218L2.78906 12.0293H1V10.7971L15.2109 1H17Z"
                  fill="white"/>
            <path d="M7.66719 1V12.0293H10.3328V1H7.66719ZM1 4.67716V8.35217H17V4.67716H1Z" fill="white"/>
            <path d="M1 5.41173V7.6176H17V5.41173H1ZM8.2 1V12.0293H9.8V1H8.2ZM1 12.0293L6.33281 8.35217H7.52656L2.19219 12.0293H1ZM1 1L6.33281 4.67716H5.14062L1 1.82289V1ZM10.475 4.67716L15.8078 1H17L11.6672 4.67716H10.475ZM17 12.0293L11.6672 8.35217H12.8594L17 11.2064V12.0293Z"
                  fill="#C8102E"/>
        </g>
        <rect x="0.5" y="0.5" width="17" height="12" stroke="black"/>
        <defs>
            <clipPath id="clip0">
            </clipPath>
        </defs>
    </symbol>


    <symbol id="icon-map" viewBox="0 0 14 18" fill="none" xmlns="http://www.w3.org/2000/svg">
        <path d="M13 7.66669C13 12.3334 7 16.3334 7 16.3334C7 16.3334 1 12.3334 1 7.66669C1 6.07539 1.63214 4.54926 2.75736 3.42405C3.88258 2.29883 5.4087 1.66669 7 1.66669C8.5913 1.66669 10.1174 2.29883 11.2426 3.42405C12.3679 4.54926 13 6.07539 13 7.66669Z"
              stroke="black" stroke-width="2" stroke-linecap="round" stroke-linejoin="round"/>
        <path d="M7 9.66669C8.10457 9.66669 9 8.77126 9 7.66669C9 6.56212 8.10457 5.66669 7 5.66669C5.89543 5.66669 5 6.56212 5 7.66669C5 8.77126 5.89543 9.66669 7 9.66669Z"
              stroke="black" stroke-width="2" stroke-linecap="round" stroke-linejoin="round"/>
    </symbol>


    <symbol id="icon-arrow-down" viewBox="0 0 10 5" fill="none" xmlns="http://www.w3.org/2000/svg">
        <path d="M1 1L5 4L9 1" stroke="black" stroke-width="2" stroke-linecap="round" stroke-linejoin="round"/>
    </symbol>


    <symbol id="icon-plus" viewBox="0 0 16 16" xmlns="http://www.w3.org/2000/svg">
        <path d="M8 0C8.55228 0 9 0.447715 9 1V7H15C15.5523 7 16 7.44772 16 8C16 8.55228 15.5523 9 15 9H9V15C9 15.5523 8.55228 16 8 16C7.44772 16 7 15.5523 7 15V9H1C0.447715 9 0 8.55228 0 8C0 7.44772 0.447715 7 1 7H7V1C7 0.447715 7.44772 0 8 0Z"/>
    </symbol>


    <symbol id="icon-user" viewBox="0 0 24 24" fill="none" xmlns="http://www.w3.org/2000/svg">
        <circle cx="12.5" cy="7.5" r="5.5" stroke="black" stroke-width="2"/>
        <path d="M22 22C22 17.0294 17.7467 13 12.5 13C7.25329 13 3 17.0294 3 22" stroke="black" stroke-width="2"/>
    </symbol>


    <symbol id="icon-search" viewBox="0 0 19 19" xmlns="http://www.w3.org/2000/svg">
        <path fill-rule="evenodd" clip-rule="evenodd"
              d="M8.16667 2.5C5.03705 2.5 2.5 5.03705 2.5 8.16667C2.5 11.2963 5.03705 13.8333 8.16667 13.8333C9.68911 13.8333 11.0713 13.2329 12.0895 12.256C12.1136 12.2255 12.1397 12.1961 12.1679 12.1679C12.1961 12.1397 12.2255 12.1136 12.256 12.0895C13.2329 11.0713 13.8333 9.68911 13.8333 8.16667C13.8333 5.03705 11.2963 2.5 8.16667 2.5ZM14.2489 12.8347C15.2426 11.5419 15.8333 9.92326 15.8333 8.16667C15.8333 3.93248 12.4008 0.5 8.16667 0.5C3.93248 0.5 0.5 3.93248 0.5 8.16667C0.5 12.4008 3.93248 15.8333 8.16667 15.8333C9.92326 15.8333 11.5419 15.2426 12.8347 14.2489L17.0429 18.4571C17.4334 18.8476 18.0666 18.8476 18.4571 18.4571C18.8476 18.0666 18.8476 17.4334 18.4571 17.0429L14.2489 12.8347Z"/>
    </symbol>


    <symbol id="icon-rub" viewBox="0 0 12 14" fill="none" xmlns="http://www.w3.org/2000/svg">
        <path d="M0.300084 11.4316H2.40013V13.2046C2.40013 13.2909 2.42815 13.3615 2.48454 13.4167C2.54077 13.4722 2.61265 13.5 2.70021 13.5H4.26576C4.34701 13.5 4.41732 13.4722 4.47671 13.4167C4.53609 13.3615 4.56569 13.2908 4.56569 13.2046V11.4316H9.30007C9.38745 11.4316 9.45936 11.4042 9.51572 11.3487C9.57213 11.2931 9.60013 11.2225 9.60013 11.1362V9.95435C9.60013 9.8686 9.57213 9.79748 9.51572 9.74228C9.45952 9.68672 9.38745 9.65895 9.30007 9.65895H4.56554V8.56941H7.75305C9.00299 8.56941 10.0232 8.19431 10.814 7.44305C11.6045 6.69258 12 5.72314 12 4.53471C12 3.34706 11.6045 2.3776 10.814 1.62636C10.0233 0.875861 9.00296 0.5 7.75305 0.5H2.70006C2.61247 0.5 2.54074 0.527752 2.48438 0.582975C2.42815 0.638505 2.39997 0.709605 2.39997 0.795383V6.60305H0.300084C0.21252 6.60305 0.140766 6.63223 0.0844076 6.69069C0.0282049 6.74917 0 6.81841 0 6.89841V8.27398C0 8.36024 0.0280237 8.4309 0.0844076 8.48641C0.140791 8.54196 0.212364 8.56938 0.300084 8.56938H2.40013V9.65892H0.300084C0.21252 9.65892 0.140766 9.6867 0.0844076 9.74225C0.0282049 9.79745 0 9.86842 0 9.95433V11.1362C0 11.2225 0.0280237 11.2931 0.0844076 11.3486C0.140766 11.4042 0.212494 11.4316 0.300084 11.4316ZM4.56554 2.46682H7.56555C8.22798 2.46682 8.76227 2.65756 9.16865 3.03919C9.57482 3.42083 9.778 3.91958 9.778 4.53486C9.778 5.15045 9.57482 5.64934 9.16865 6.03053C8.76227 6.41248 8.22795 6.60323 7.56555 6.60323H4.56554V2.46682Z"
              fill="black"/>
    </symbol>


    <symbol id="icon-filters" viewBox="0 0 22 22" fill="none" xmlns="http://www.w3.org/2000/svg">
        <g clip-path="url(#clip0)">
            <path d="M3.66602 19.25V12.8333M3.66602 9.16667V2.75M10.9993 19.25V11M10.9993 7.33333V2.75M18.3327 19.25V14.6667M18.3327 11V2.75M0.916016 12.8333H6.41602M8.24935 7.33333H13.7493M15.5827 14.6667H21.0827"
                  stroke="white" stroke-width="2" stroke-linecap="round" stroke-linejoin="round"/>
        </g>
        <defs>
            <clipPath id="clip0">
                <rect width="22" height="22" fill="white"/>
            </clipPath>
        </defs>
    </symbol>


    <symbol id="icon-location" viewBox="0 0 24 24" fill="none" xmlns="http://www.w3.org/2000/svg">
        <path d="M21 10C21 17 12 23 12 23C12 23 3 17 3 10C3 7.61305 3.94821 5.32387 5.63604 3.63604C7.32387 1.94821 9.61305 1 12 1C14.3869 1 16.6761 1.94821 18.364 3.63604C20.0518 5.32387 21 7.61305 21 10Z"
              stroke="#AFAFAF" stroke-width="2" stroke-linecap="round" stroke-linejoin="round"/>
        <path d="M12 13C13.6569 13 15 11.6569 15 10C15 8.34315 13.6569 7 12 7C10.3431 7 9 8.34315 9 10C9 11.6569 10.3431 13 12 13Z"
              stroke="#AFAFAF" stroke-width="2" stroke-linecap="round" stroke-linejoin="round"/>
    </symbol>


    <symbol id="icon-layers" viewBox="0 0 28 28" fill="none" xmlns="http://www.w3.org/2000/svg">
        <path fill-rule="evenodd" clip-rule="evenodd"
              d="M13.553 0.605573C13.8345 0.464809 14.1659 0.464809 14.4474 0.605573L26.9474 6.85557C27.2862 7.02496 27.5002 7.37123 27.5002 7.75C27.5002 8.12877 27.2862 8.47504 26.9474 8.64443L14.4474 14.8944C14.1659 15.0352 13.8345 15.0352 13.553 14.8944L1.05301 8.64443C0.714221 8.47504 0.500219 8.12877 0.500219 7.75C0.500219 7.37123 0.714221 7.02496 1.05301 6.85557L13.553 0.605573ZM3.73629 7.75L14.0002 12.882L24.2642 7.75L14.0002 2.61803L3.73629 7.75ZM0.605792 19.8028C0.852781 19.3088 1.45345 19.1086 1.94743 19.3556L14.0002 25.382L26.053 19.3556C26.547 19.1086 27.1477 19.3088 27.3946 19.8028C27.6416 20.2968 27.4414 20.8974 26.9474 21.1444L14.4474 27.3944C14.1659 27.5352 13.8345 27.5352 13.553 27.3944L1.05301 21.1444C0.559027 20.8974 0.358803 20.2968 0.605792 19.8028ZM1.94743 13.1056C1.45345 12.8586 0.852781 13.0588 0.605792 13.5528C0.358803 14.0468 0.559027 14.6474 1.05301 14.8944L13.553 21.1444C13.8345 21.2852 14.1659 21.2852 14.4474 21.1444L26.9474 14.8944C27.4414 14.6474 27.6416 14.0468 27.3946 13.5528C27.1477 13.0588 26.547 12.8586 26.053 13.1056L14.0002 19.132L1.94743 13.1056Z"
              fill="white"/>
    </symbol>


    <symbol id="icon-instagram" viewBox="0 0 22 22" fill="none" xmlns="http://www.w3.org/2000/svg">
        <path fill-rule="evenodd" clip-rule="evenodd"
              d="M16.0471 6.03585C16.0471 6.59511 15.5939 7.04827 15.0346 7.04827C14.4773 7.04827 14.0241 6.59511 14.0241 6.03585C14.0241 5.47659 14.4773 5.02442 15.0346 5.02442C15.5939 5.02442 16.0471 5.47659 16.0471 6.03585ZM10.5375 13.3439C8.98554 13.3439 7.72713 12.0866 7.72713 10.5347C7.72713 8.98288 8.98554 7.72553 10.5375 7.72553C12.0884 7.72553 13.3468 8.98288 13.3468 10.5347C13.3468 12.0866 12.0884 13.3439 10.5375 13.3439ZM10.5375 6.2074C8.14561 6.2074 6.20791 8.14498 6.20791 10.5347C6.20791 12.9255 8.14561 14.863 10.5375 14.863C12.9264 14.863 14.8641 12.9255 14.8641 10.5347C14.8641 8.14498 12.9264 6.2074 10.5375 6.2074ZM10.5375 3.62528C12.7875 3.62528 13.0523 3.63421 13.9418 3.67387C14.7639 3.71254 15.2092 3.85037 15.5077 3.96441C15.9013 4.11612 16.181 4.30056 16.4765 4.59506C16.772 4.89056 16.9535 5.17118 17.1072 5.56385C17.2222 5.86133 17.3591 6.30755 17.3978 7.12958C17.4374 8.01805 17.4463 8.28479 17.4463 10.5357C17.4463 12.7857 17.4374 13.0524 17.3978 13.9409C17.3591 14.7619 17.2222 15.2091 17.1072 15.5056C16.9535 15.9003 16.772 16.1799 16.4765 16.4754C16.181 16.7719 15.9013 16.9543 15.5077 17.105C15.2092 17.2211 14.7639 17.3579 13.9418 17.3966C13.0523 17.4362 12.7875 17.4452 10.5375 17.4452C8.28444 17.4452 8.01769 17.4362 7.13015 17.3966C6.30807 17.3579 5.86084 17.2211 5.56433 17.105C5.17064 16.9543 4.89001 16.7719 4.59548 16.4754C4.30096 16.1799 4.1185 15.9003 3.96479 15.5056C3.84976 15.2091 3.71291 14.7619 3.67424 13.9409C3.63358 13.0524 3.62565 12.7857 3.62565 10.5357C3.62565 8.28479 3.63358 8.01805 3.67424 7.12958C3.71291 6.30755 3.84976 5.86133 3.96479 5.56385C4.1185 5.17118 4.30096 4.89056 4.59548 4.59506C4.89001 4.30056 5.17064 4.11612 5.56433 3.96441C5.86084 3.85037 6.30807 3.71254 7.13015 3.67387C8.01769 3.63421 8.28444 3.62528 10.5375 3.62528ZM10.5375 2.10715C8.24676 2.10715 7.96017 2.11607 7.06074 2.15673C6.16428 2.19738 5.55144 2.34017 5.01495 2.5494C4.45963 2.76458 3.99057 3.05313 3.52251 3.52116C3.05346 3.9892 2.7639 4.46021 2.5497 5.01352C2.34046 5.54997 2.19965 6.16278 2.157 7.05918C2.11734 7.95856 2.10742 8.24711 2.10742 10.5347C2.10742 12.8243 2.11734 13.1109 2.157 14.0103C2.19965 14.9077 2.34046 15.5205 2.5497 16.0559C2.7639 16.6102 3.05346 17.0803 3.52251 17.5493C3.99057 18.0183 4.45963 18.3059 5.01495 18.521C5.55144 18.7293 6.16428 18.8731 7.06074 18.9127C7.96017 18.9544 8.24676 18.9643 10.5375 18.9643C12.8252 18.9643 13.1128 18.9544 14.0112 18.9127C14.9077 18.8731 15.5205 18.7293 16.057 18.521C16.6124 18.3059 17.0814 18.0183 17.5505 17.5493C18.0185 17.0803 18.3061 16.6102 18.5223 16.0559C18.7315 15.5205 18.8733 14.9077 18.914 14.0103C18.9556 13.1109 18.9646 12.8243 18.9646 10.5347C18.9646 8.24711 18.9556 7.95856 18.914 7.05918C18.8733 6.16278 18.7315 5.54997 18.5223 5.01352C18.3061 4.46021 18.0185 3.9892 17.5505 3.52116C17.0814 3.05313 16.6124 2.76458 16.057 2.5494C15.5205 2.34017 14.9077 2.19738 14.0112 2.15673C13.1128 2.11607 12.8252 2.10715 10.5375 2.10715Z"
              fill="white"/>
    </symbol>


    <symbol id="icon-facebook" viewBox="0 0 22 22" fill="none" xmlns="http://www.w3.org/2000/svg">
        <path fill-rule="evenodd" clip-rule="evenodd"
              d="M15.2157 1.4171H12.5904C12.5904 1.4171 8.48422 0.978496 8.48422 5.32911C8.48422 6.25792 8.48422 7.13192 8.48422 7.13192H6.81453L6.78711 10.5548H8.48422V19.6667H12.3773V10.5548H14.6271L15.1735 7.13192H12.3773V5.74084C12.3773 5.74084 12.139 4.56369 13.5228 4.56369H15.1904L15.2157 1.4171Z"
              fill="white"/>
    </symbol>


    <symbol id="icon-twitter" viewBox="0 0 22 22" fill="none" xmlns="http://www.w3.org/2000/svg">
        <g clip-path="url(#clip0)">
            <path fill-rule="evenodd" clip-rule="evenodd"
                  d="M1.11789 14.3472C1.11789 14.3472 3.96253 15.3281 5.14358 15.3281C5.14358 15.3281 6.72289 15.9528 7.8049 14.284C7.8049 14.284 8.16944 13.7635 7.67637 13.5096C7.67637 13.5096 3.16287 12.9912 3.50739 12.1716C3.50739 12.1716 3.48632 11.708 4.11003 11.8133C4.11003 11.8133 4.97817 10.1603 4.63576 9.94958C4.63576 9.94958 4.09844 9.48601 4.52724 9.44387C4.52724 9.44387 5.79258 9.61244 6.20032 9.7178C6.20032 9.7178 6.47951 9.61982 6.22139 9.42912C5.96326 9.23948 5.53446 8.81383 5.6198 8.7306C5.6198 8.7306 5.77151 8.37344 6.45844 8.66739C6.45844 8.66739 6.84299 8.26176 6.64703 8.05315C6.64703 8.05315 6.06862 7.71706 6.34782 7.44208C6.34782 7.44208 7.65635 5.83117 9.1166 8.37344C9.1166 8.37344 9.48219 8.85598 9.52433 8.39346C9.52433 8.39346 11.3101 3.41849 13.6512 3.0213C13.6512 3.0213 14.4045 3.16564 14.5551 2.93385C14.5551 2.93385 15.2062 2.6831 15.4212 2.89381C15.4212 2.89381 15.634 3.20883 15.8942 3.0213C15.8942 3.0213 16.8161 2.66203 16.5369 3.25098C16.5369 3.25098 15.653 4.20551 15.3306 4.22974C15.0082 4.24871 15.0735 4.67435 15.3527 4.71649C15.3527 4.71649 19.2172 4.98832 19.2172 7.80662C19.2172 7.80662 19.4437 8.47669 20.1738 7.78344C20.1738 7.78344 21.278 7.0944 21.5582 7.06069C21.5582 7.06069 21.8595 6.87105 21.8164 7.31249C21.8164 7.31249 21.0209 8.66106 20.2054 9.0393C20.2054 9.0393 19.7113 9.64826 20.4193 9.52289C20.4193 9.52289 21.1084 9.38276 21.4307 9.19417C21.4307 9.19417 22.2704 8.79487 21.8827 9.50814C21.8827 9.50814 20.119 10.6302 19.7313 10.6302C19.7313 10.6302 19.4753 10.6924 19.4753 10.9241C19.4753 10.9241 19.2383 18.6005 9.3979 18.6005C9.3979 18.6005 4.47035 18.5941 1.24642 14.8929C1.24642 14.8929 0.624815 14.2418 1.11789 14.3472Z"
                  fill="white"/>
        </g>
        <defs>
            <clipPath id="clip0">
                <rect width="21.0714" height="21.0714" fill="white" transform="translate(0.927734)"/>
            </clipPath>
        </defs>
    </symbol>


    <symbol id="icon-grid" viewBox="0 0 24 24" xmlns="http://www.w3.org/2000/svg">
        <path d="M11 6H6V11H11V6Z"/>
        <path d="M11 13H6V18H11V13Z"/>
        <path d="M18 6H13V11H18V6Z"/>
        <path d="M18 13H13V18H18V13Z"/>
    </symbol>


    <symbol id="icon-list" viewBox="0 0 24 24" xmlns="http://www.w3.org/2000/svg">
        <path d="M8 7H22V11H8V7Z"/>
        <path d="M8 13H22V17H8V13Z"/>
        <path d="M2 7H6V11H2V7Z"/>
        <path d="M2 13H6V17H2V13Z"/>
    </symbol>


    <symbol id="icon-letter" viewBox="0 0 24 24" fill="none" xmlns="http://www.w3.org/2000/svg">
        <path fill-rule="evenodd" clip-rule="evenodd"
              d="M4.36902 5.93766L12.625 11.7168L20.881 5.93766C20.7285 5.67709 20.4453 5.5 20.125 5.5H5.125C4.80471 5.5 4.52151 5.67709 4.36902 5.93766ZM21 8.29566L13.1985 13.7567C12.8541 13.9978 12.3959 13.9978 12.0515 13.7567L4.25 8.29566V17.625C4.25 18.104 4.64603 18.5 5.125 18.5H20.125C20.604 18.5 21 18.104 21 17.625V8.29566ZM2.25 6.375C2.25 4.79147 3.54147 3.5 5.125 3.5H20.125C21.7085 3.5 23 4.79147 23 6.375V17.625C23 19.2085 21.7085 20.5 20.125 20.5H5.125C3.54147 20.5 2.25 19.2085 2.25 17.625V6.375Z"
              fill="white"/>
    </symbol>


    <symbol id="icon-arrow-left" viewBox="0 0 38 38" fill="none" xmlns="http://www.w3.org/2000/svg">
        <path d="M30 19H9M9 19L16 26M9 19L16 12" stroke="black" stroke-width="2" stroke-linecap="round"
              stroke-linejoin="round"/>
    </symbol>


    <symbol id="icon-arrow-right" viewBox="0 0 5 8" fill="none" xmlns="http://www.w3.org/2000/svg">
        <path d="M1 7L4 4L1 1" stroke="#A0A0A0" stroke-linecap="round" stroke-linejoin="round"/>
    </symbol>


    <symbol id="icon-heart" viewBox="0 0 24 21" fill="none" xmlns="http://www.w3.org/2000/svg">
        <path d="M20.4651 3.11012C19.9544 2.59912 19.3479 2.19376 18.6805 1.9172C18.013 1.64064 17.2976 1.49829 16.5751 1.49829C15.8526 1.49829 15.1372 1.64064 14.4698 1.9172C13.8023 2.19376 13.1959 2.59912 12.6851 3.11012L11.6251 4.17012L10.5651 3.11012C9.53343 2.07842 8.13415 1.49883 6.67512 1.49883C5.21609 1.49883 3.81681 2.07842 2.78512 3.11012C1.75343 4.14181 1.17383 5.54108 1.17383 7.00012C1.17383 8.45915 1.75343 9.85842 2.78512 10.8901L3.84512 11.9501L11.6251 19.7301L19.4051 11.9501L20.4651 10.8901C20.9761 10.3794 21.3815 9.77293 21.658 9.10547C21.9346 8.43801 22.0769 7.7226 22.0769 7.00012C22.0769 6.27763 21.9346 5.56222 21.658 4.89476C21.3815 4.2273 20.9761 3.62087 20.4651 3.11012V3.11012Z"
              stroke-width="2" stroke-linecap="round" stroke-linejoin="round"/>
    </symbol>


    <symbol id="icon-star-yes" viewBox="0 0 16 17" fill="none" xmlns="http://www.w3.org/2000/svg">
        <path d="M8 1.8501L10.163 6.22749L15 6.93375L11.5 10.3392L12.326 15.1501L8 12.8775L3.674 15.1501L4.5 10.3392L1 6.93375L5.837 6.22749L8 1.8501Z"
              fill="#5A9A70" stroke="#5B9A70" stroke-width="2" stroke-linejoin="round"/>
    </symbol>


    <symbol id="icon-star-no" viewBox="0 0 16 17" fill="none" xmlns="http://www.w3.org/2000/svg">
        <path d="M8 1.8501L10.163 6.22749L15 6.93375L11.5 10.3392L12.326 15.1501L8 12.8775L3.674 15.1501L4.5 10.3392L1 6.93375L5.837 6.22749L8 1.8501Z"
              stroke="black" stroke-width="2" stroke-linejoin="round"/>
    </symbol>


    <symbol id="icon-no-image" viewBox="0 0 28 28" fill="none" xmlns="http://www.w3.org/2000/svg">
        <path d="M26.8334 22.1667C26.8334 22.7855 26.5875 23.379 26.1499 23.8166C25.7123 24.2542 25.1189 24.5 24.5 24.5H3.50002C2.88118 24.5 2.28769 24.2542 1.8501 23.8166C1.41252 23.379 1.16669 22.7855 1.16669 22.1667V9.33333C1.16669 8.71449 1.41252 8.121 1.8501 7.68342C2.28769 7.24583 2.88118 7 3.50002 7H8.16669L10.5 3.5H17.5L19.8334 7H24.5C25.1189 7 25.7123 7.24583 26.1499 7.68342C26.5875 8.121 26.8334 8.71449 26.8334 9.33333V22.1667Z"
              stroke-width="2" stroke-linecap="round" stroke-linejoin="round"/>
        <path d="M14 19.8333C16.5774 19.8333 18.6667 17.744 18.6667 15.1667C18.6667 12.5893 16.5774 10.5 14 10.5C11.4227 10.5 9.33335 12.5893 9.33335 15.1667C9.33335 17.744 11.4227 19.8333 14 19.8333Z"
              stroke-width="2" stroke-linecap="round" stroke-linejoin="round"/>
    </symbol>


    <symbol id="icon-doc-plus" viewBox="0 0 18 22" fill="none" xmlns="http://www.w3.org/2000/svg">
        <path fill-rule="evenodd" clip-rule="evenodd"
              d="M0.87868 0.87868C1.44129 0.31607 2.20435 0 3 0H11C11.2652 0 11.5196 0.105357 11.7071 0.292893L17.7071 6.29289C17.8946 6.48043 18 6.73478 18 7V19C18 19.7957 17.6839 20.5587 17.1213 21.1213C16.5587 21.6839 15.7957 22 15 22H3C2.20435 22 1.44129 21.6839 0.87868 21.1213C0.31607 20.5587 0 19.7957 0 19V3C0 2.20435 0.31607 1.44129 0.87868 0.87868ZM3 2C2.73478 2 2.48043 2.10536 2.29289 2.29289C2.10536 2.48043 2 2.73478 2 3V19C2 19.2652 2.10536 19.5196 2.29289 19.7071C2.48043 19.8946 2.73478 20 3 20H15C15.2652 20 15.5196 19.8946 15.7071 19.7071C15.8946 19.5196 16 19.2652 16 19V8H11C10.4477 8 10 7.55228 10 7V2H3ZM12 3.41421L14.5858 6H12V3.41421ZM9 10C9.55229 10 10 10.4477 10 11V13H12C12.5523 13 13 13.4477 13 14C13 14.5523 12.5523 15 12 15H10V17C10 17.5523 9.55229 18 9 18C8.44772 18 8 17.5523 8 17V15H6C5.44772 15 5 14.5523 5 14C5 13.4477 5.44772 13 6 13H8V11C8 10.4477 8.44772 10 9 10Z"
              fill="white"/>
    </symbol>


    <symbol id="icon-no-image-thin" viewBox="0 0 34 28" fill="none" xmlns="http://www.w3.org/2000/svg">
        <path d="M32.5834 23.9167C32.5834 24.6681 32.2849 25.3888 31.7535 25.9201C31.2222 26.4515 30.5015 26.75 29.7501 26.75H4.25008C3.49863 26.75 2.77797 26.4515 2.24661 25.9201C1.71526 25.3888 1.41675 24.6681 1.41675 23.9167V8.33333C1.41675 7.58189 1.71526 6.86122 2.24661 6.32986C2.77797 5.79851 3.49863 5.5 4.25008 5.5H9.91675L12.7501 1.25H21.2501L24.0834 5.5H29.7501C30.5015 5.5 31.2222 5.79851 31.7535 6.32986C32.2849 6.86122 32.5834 7.58189 32.5834 8.33333V23.9167Z"
              stroke="black" stroke-width="2" stroke-linecap="round" stroke-linejoin="round"/>
        <path d="M16.9999 21.0833C20.1295 21.0833 22.6666 18.5463 22.6666 15.4167C22.6666 12.2871 20.1295 9.75 16.9999 9.75C13.8703 9.75 11.3333 12.2871 11.3333 15.4167C11.3333 18.5463 13.8703 21.0833 16.9999 21.0833Z"
              stroke="black" stroke-width="2" stroke-linecap="round" stroke-linejoin="round"/>
    </symbol>


    <symbol id="icon-edit" viewBox="0 0 20 20" fill="none" xmlns="http://www.w3.org/2000/svg">
        <path d="M9.16699 3.33325H3.33366C2.89163 3.33325 2.46771 3.50885 2.15515 3.82141C1.84259 4.13397 1.66699 4.55789 1.66699 4.99992V16.6666C1.66699 17.1086 1.84259 17.5325 2.15515 17.8451C2.46771 18.1577 2.89163 18.3333 3.33366 18.3333H15.0003C15.4424 18.3333 15.8663 18.1577 16.1788 17.8451C16.4914 17.5325 16.667 17.1086 16.667 16.6666V10.8333"
              stroke="#5A9A70" stroke-width="2" stroke-linecap="round" stroke-linejoin="round"/>
        <path d="M15.417 2.08344C15.7485 1.75192 16.1982 1.56567 16.667 1.56567C17.1358 1.56567 17.5855 1.75192 17.917 2.08344C18.2485 2.41496 18.4348 2.8646 18.4348 3.33344C18.4348 3.80228 18.2485 4.25192 17.917 4.58344L10.0003 12.5001L6.66699 13.3334L7.50033 10.0001L15.417 2.08344Z"
              stroke="#5A9A70" stroke-width="2" stroke-linecap="round" stroke-linejoin="round"/>
    </symbol>


    <symbol id="icon-doc" xmlns="http://www.w3.org/2000/svg" xmlns:xlink="http://www.w3.org/1999/xlink"
            viewBox="0 0 512 512" style="enable-background:new 0 0 512 512;" xml:space="preserve">
    <path style="fill:#E2E5E7;"
          d="M128,0c-17.6,0-32,14.4-32,32v448c0,17.6,14.4,32,32,32h320c17.6,0,32-14.4,32-32V128L352,0H128z"/>
        <path style="fill:#B0B7BD;" d="M384,128h96L352,0v96C352,113.6,366.4,128,384,128z"/>
        <polygon style="fill:#CAD1D8;" points="480,224 384,128 480,128 "/>
        <path style="fill:#50BEE8;" d="M416,416c0,8.8-7.2,16-16,16H48c-8.8,0-16-7.2-16-16V256c0-8.8,7.2-16,16-16h352c8.8,0,16,7.2,16,16
        V416z"/>
        <path style="fill:#FFFFFF;" d="M92.576,384c-4.224,0-8.832-2.32-8.832-7.936v-72.656c0-4.608,4.608-7.936,8.832-7.936h29.296
            c58.464,0,57.168,88.528,1.136,88.528H92.576z M100.64,311.072v57.312h21.232c34.544,0,36.064-57.312,0-57.312H100.64z"/>
        <path style="fill:#FFFFFF;" d="M228,385.28c-23.664,1.024-48.24-14.72-48.24-46.064c0-31.472,24.56-46.944,48.24-46.944
            c22.384,1.136,45.792,16.624,45.792,46.944C273.792,369.552,250.384,385.28,228,385.28z M226.592,308.912
            c-14.336,0-29.936,10.112-29.936,30.32c0,20.096,15.616,30.336,29.936,30.336c14.72,0,30.448-10.24,30.448-30.336
            C257.04,319.008,241.312,308.912,226.592,308.912z"/>
        <path style="fill:#FFFFFF;" d="M288.848,339.088c0-24.688,15.488-45.92,44.912-45.92c11.136,0,19.968,3.328,29.296,11.392
            c3.456,3.184,3.84,8.816,0.384,12.4c-3.456,3.056-8.704,2.688-11.776-0.384c-5.232-5.504-10.608-7.024-17.904-7.024
            c-19.696,0-29.152,13.952-29.152,29.552c0,15.872,9.328,30.448,29.152,30.448c7.296,0,14.08-2.96,19.968-8.192
            c3.952-3.072,9.456-1.552,11.76,1.536c2.048,2.816,3.056,7.552-1.408,12.016c-8.96,8.336-19.696,10-30.336,10
            C302.8,384.912,288.848,363.776,288.848,339.088z"/>

        <path style="fill:#CAD1D8;" d="M400,432H96v16h304c8.8,0,16-7.2,16-16v-16C416,424.8,408.8,432,400,432z"/>

    </symbol>


    <symbol id="icon-excel" xmlns="http://www.w3.org/2000/svg" xmlns:xlink="http://www.w3.org/1999/xlink"
            viewBox="0 0 512 512" style="enable-background:new 0 0 512 512;" xml:space="preserve">
        <path style="fill:#E2E5E7;"
              d="M128,0c-17.6,0-32,14.4-32,32v448c0,17.6,14.4,32,32,32h320c17.6,0,32-14.4,32-32V128L352,0H128z"/>
        <path style="fill:#B0B7BD;" d="M384,128h96L352,0v96C352,113.6,366.4,128,384,128z"/>
        <polygon style="fill:#CAD1D8;" points="480,224 384,128 480,128 "/>
        <path style="fill:#84BD5A;" d="M416,416c0,8.8-7.2,16-16,16H48c-8.8,0-16-7.2-16-16V256c0-8.8,7.2-16,16-16h352c8.8,0,16,7.2,16,16
        V416z"/>

        <path style="fill:#FFFFFF;" d="M144.336,326.192l22.256-27.888c6.656-8.704,19.584,2.416,12.288,10.736
        c-7.664,9.088-15.728,18.944-23.408,29.04l26.096,32.496c7.04,9.6-7.024,18.8-13.936,9.328l-23.552-30.192l-23.152,30.848
        c-6.528,9.328-20.992-1.152-13.696-9.856l25.712-32.624c-8.064-10.112-15.872-19.952-23.664-29.04
        c-8.048-9.6,6.912-19.44,12.8-10.464L144.336,326.192z"/>
        <path style="fill:#FFFFFF;" d="M197.36,303.152c0-4.224,3.584-7.808,8.064-7.808c4.096,0,7.552,3.6,7.552,7.808v64.096h34.8
        c12.528,0,12.8,16.752,0,16.752H205.44c-4.48,0-8.064-3.184-8.064-7.792v-73.056H197.36z"/>
        <path style="fill:#FFFFFF;" d="M272.032,314.672c2.944-24.832,40.416-29.296,58.08-15.728c8.704,7.024-0.512,18.16-8.192,12.528
        c-9.472-6-30.96-8.816-33.648,4.464c-3.456,20.992,52.192,8.976,51.296,43.008c-0.896,32.496-47.968,33.248-65.632,18.672
        c-4.24-3.456-4.096-9.072-1.792-12.544c3.328-3.312,7.024-4.464,11.392-0.88c10.48,7.152,37.488,12.528,39.392-5.648
        C321.28,339.632,268.064,351.008,272.032,314.672z"/>

        <path style="fill:#CAD1D8;" d="M400,432H96v16h304c8.8,0,16-7.2,16-16v-16C416,424.8,408.8,432,400,432z"/>
    </symbol>


    <symbol id="icon-pdf" xmlns="http://www.w3.org/2000/svg" xmlns:xlink="http://www.w3.org/1999/xlink" x="0px" y="0px"
            viewBox="0 0 512 512" style="enable-background:new 0 0 512 512;" xml:space="preserve">
        <path style="fill:#E2E5E7;"
              d="M128,0c-17.6,0-32,14.4-32,32v448c0,17.6,14.4,32,32,32h320c17.6,0,32-14.4,32-32V128L352,0H128z"/>
        <path style="fill:#B0B7BD;" d="M384,128h96L352,0v96C352,113.6,366.4,128,384,128z"/>
        <polygon style="fill:#CAD1D8;" points="480,224 384,128 480,128 "/>
        <path style="fill:#F15642;" d="M416,416c0,8.8-7.2,16-16,16H48c-8.8,0-16-7.2-16-16V256c0-8.8,7.2-16,16-16h352c8.8,0,16,7.2,16,16
    V416z"/>
        <path style="fill:#FFFFFF;" d="M101.744,303.152c0-4.224,3.328-8.832,8.688-8.832h29.552c16.64,0,31.616,11.136,31.616,32.48
        c0,20.224-14.976,31.488-31.616,31.488h-21.36v16.896c0,5.632-3.584,8.816-8.192,8.816c-4.224,0-8.688-3.184-8.688-8.816V303.152z
         M118.624,310.432v31.872h21.36c8.576,0,15.36-7.568,15.36-15.504c0-8.944-6.784-16.368-15.36-16.368H118.624z"/>
        <path style="fill:#FFFFFF;" d="M196.656,384c-4.224,0-8.832-2.304-8.832-7.92v-72.672c0-4.592,4.608-7.936,8.832-7.936h29.296
        c58.464,0,57.184,88.528,1.152,88.528H196.656z M204.72,311.088V368.4h21.232c34.544,0,36.08-57.312,0-57.312H204.72z"/>
        <path style="fill:#FFFFFF;" d="M303.872,312.112v20.336h32.624c4.608,0,9.216,4.608,9.216,9.072c0,4.224-4.608,7.68-9.216,7.68
        h-32.624v26.864c0,4.48-3.184,7.92-7.664,7.92c-5.632,0-9.072-3.44-9.072-7.92v-72.672c0-4.592,3.456-7.936,9.072-7.936h44.912
        c5.632,0,8.96,3.344,8.96,7.936c0,4.096-3.328,8.704-8.96,8.704h-37.248V312.112z"/>

        <path style="fill:#CAD1D8;" d="M400,432H96v16h304c8.8,0,16-7.2,16-16v-16C416,424.8,408.8,432,400,432z"/>
    </symbol>


    <symbol id="icon-bank_card" viewBox="0 0 104 24" fill="none" xmlns="http://www.w3.org/2000/svg">
        <path d="M100.387 4.85986H97.0703C96.0675 4.85986 95.2961 5.16842 94.8333 6.17124L88.5078 20.5964H92.9819C92.9819 20.5964 93.7533 18.6679 93.9076 18.2051C94.3704 18.2051 98.7674 18.2051 99.3845 18.2051C99.5388 18.745 99.9245 20.5192 99.9245 20.5192H103.936L100.387 4.85986ZM95.1418 14.9652C95.5275 14.0395 96.8389 10.5682 96.8389 10.5682C96.8389 10.6453 97.2246 9.64253 97.3789 9.10255L97.6874 10.4911C97.6874 10.4911 98.536 14.2709 98.6903 15.0423H95.1418V14.9652Z"
              fill="#3362AB"/>
        <path d="M88.816 15.428C88.816 18.6679 85.8847 20.8278 81.3334 20.8278C79.405 20.8278 77.5536 20.4421 76.5508 19.9792L77.1679 16.4308L77.7079 16.6622C79.0964 17.2793 80.0221 17.5108 81.7191 17.5108C82.9534 17.5108 84.2648 17.0479 84.2648 15.968C84.2648 15.2737 83.7248 14.8109 82.0277 14.0395C80.4078 13.2681 78.2479 12.0338 78.2479 9.79679C78.2479 6.71119 81.2563 4.62842 85.499 4.62842C87.1189 4.62842 88.5075 4.93698 89.356 5.32268L88.7389 8.71683L88.4303 8.40827C87.6589 8.09971 86.6561 7.79115 85.1904 7.79115C83.5705 7.86829 82.7991 8.56255 82.7991 9.17967C82.7991 9.87392 83.7248 10.4139 85.1904 11.1082C87.6589 12.2653 88.816 13.5766 88.816 15.428Z"
              fill="#3362AB"/>
        <path d="M51.1719 5.01413L51.249 4.70557H57.883C58.8087 4.70557 59.503 5.01413 59.7344 6.01694L61.2001 12.9595C59.7344 9.25681 56.3402 6.24836 51.1719 5.01413Z"
              fill="#F9B50B"/>
        <path d="M70.5335 4.85985L63.8223 20.5192H59.2711L55.4141 7.40547C58.1911 9.17968 60.5053 11.9567 61.3538 13.8852L61.8167 15.5051L65.9822 4.78271H70.5335V4.85985Z"
              fill="#3362AB"/>
        <path d="M72.3054 4.78271H76.5481L73.8482 20.5192H69.6055L72.3054 4.78271Z" fill="#3362AB"/>
        <path d="M39.8547 11.9567C39.8547 18.5175 34.5202 23.9133 27.8981 23.9133C21.3372 23.9133 15.9414 18.5175 15.9414 11.9567C15.9414 5.39583 21.2759 0 27.8368 0C34.5202 0 39.8547 5.39583 39.8547 11.9567Z"
              fill="#F9B50B"/>
        <path d="M23.852 12.018C23.852 11.1596 23.7294 10.3011 23.6068 9.50402H16.2488C16.3101 9.07481 16.4328 8.70691 16.5554 8.21638H23.1162C22.9936 7.78716 22.8096 7.35795 22.6257 6.92874H17.0459C17.2299 6.49952 17.4751 6.13163 17.7204 5.6411H21.9512C21.706 5.21188 21.3994 4.78267 21.0315 4.35345H18.7015C19.0694 3.92424 19.4373 3.55634 19.9278 3.12713C17.843 1.16501 15.0225 0 11.8954 0C5.39583 0.183949 0 5.39583 0 11.9567C0 18.5175 5.33451 23.9133 11.9567 23.9133C15.0838 23.9133 17.843 22.687 19.9891 20.7862C20.4183 20.4183 20.7862 19.9891 21.2154 19.4986H18.7628C18.4562 19.1307 18.1496 18.7015 17.9043 18.2722H22.0739C22.3191 17.9043 22.5644 17.4751 22.7483 16.9846H17.1686C16.9846 16.6167 16.8007 16.1875 16.678 15.697H23.2389C23.6068 14.5933 23.852 13.3669 23.852 12.018Z"
              fill="#C8191C"/>
        <path d="M16.1871 15.0224L16.3711 13.9187C16.3098 13.9187 16.1871 13.98 16.0645 13.98C15.6353 13.98 15.574 13.7348 15.6353 13.6121L16.0032 11.4047H16.6777L16.8616 10.1784H16.2485L16.3711 9.44263H15.0835C15.0835 9.44263 14.3477 13.6121 14.3477 14.1027C14.3477 14.8385 14.7769 15.2064 15.39 15.2064C15.7579 15.2064 16.0645 15.0837 16.1871 15.0224Z"
              fill="white"/>
        <path d="M16.6172 12.9991C16.6172 14.7772 17.8435 15.2064 18.8246 15.2064C19.7443 15.2064 20.1735 15.0225 20.1735 15.0225L20.4188 13.7962C20.4188 13.7962 19.7443 14.1028 19.0698 14.1028C17.6596 14.1028 17.9048 13.0604 17.9048 13.0604H20.4801C20.4801 13.0604 20.6641 12.2633 20.6641 11.8954C20.6641 11.0983 20.2348 10.0559 18.8246 10.0559C17.5982 9.99457 16.6172 11.4048 16.6172 12.9991ZM18.8246 11.1596C19.4991 11.1596 19.3764 11.9567 19.3764 12.018H17.9661C18.0275 11.9567 18.1501 11.1596 18.8246 11.1596Z"
              fill="white"/>
        <path d="M26.8583 15.0225L27.1036 13.6123C27.1036 13.6123 26.4904 13.9188 25.9999 13.9188C25.1415 13.9188 24.7122 13.2444 24.7122 12.4472C24.7122 10.9143 25.448 10.1172 26.3678 10.1172C26.9809 10.1172 27.5328 10.4851 27.5328 10.4851L27.7167 9.13617C27.7167 9.13617 26.9809 8.82959 26.2451 8.82959C24.7736 8.82959 23.3633 10.1172 23.3633 12.5086C23.3633 14.1028 24.0991 15.1452 25.632 15.1452C26.1838 15.2065 26.8583 15.0225 26.8583 15.0225Z"
              fill="white"/>
        <path d="M9.25852 9.99463C8.40009 9.99463 7.72562 10.2399 7.72562 10.2399L7.54167 11.3436C7.54167 11.3436 8.09351 11.0983 8.95194 11.0983C9.38115 11.0983 9.74905 11.1596 9.74905 11.5275C9.74905 11.7728 9.68774 11.8341 9.68774 11.8341H9.13589C8.0322 11.8341 6.86719 12.2633 6.86719 13.7349C6.86719 14.8999 7.60298 15.1452 8.09351 15.1452C8.95194 15.1452 9.38115 14.5933 9.44247 14.5933L9.38115 15.0839H10.4235L10.9141 11.5889C10.9141 10.0559 9.68774 9.99463 9.25852 9.99463ZM9.50379 12.8152C9.50379 12.9991 9.38115 14.0415 8.64536 14.0415C8.27746 14.0415 8.15483 13.7349 8.15483 13.551C8.15483 13.2444 8.33878 12.8152 9.31984 12.8152C9.44247 12.8152 9.50379 12.8152 9.50379 12.8152Z"
              fill="white"/>
        <path d="M12.1384 15.145C12.445 15.145 14.0392 15.2063 14.0392 13.4894C14.0392 11.8952 12.5063 12.2018 12.5063 11.5886C12.5063 11.2821 12.7515 11.1594 13.1808 11.1594C13.3647 11.1594 14.0392 11.2207 14.0392 11.2207L14.2231 10.0557C14.2231 10.0557 13.7939 9.93311 12.9968 9.93311C12.0771 9.93311 11.096 10.301 11.096 11.5886C11.096 13.0602 12.6902 12.9376 12.6902 13.4894C12.6902 13.8573 12.261 13.9187 11.9544 13.9187C11.4026 13.9187 10.7894 13.7347 10.7894 13.7347L10.6055 14.8997C10.7281 15.0224 11.096 15.145 12.1384 15.145Z"
              fill="white"/>
        <path d="M37.4028 9.01343L37.1576 10.7303C37.1576 10.7303 36.667 10.1171 35.9312 10.1171C34.7662 10.1171 33.7852 11.5274 33.7852 13.1829C33.7852 14.2253 34.2757 15.2677 35.3794 15.2677C36.1152 15.2677 36.6057 14.7772 36.6057 14.7772L36.5444 15.2064H37.832L38.7518 9.13606L37.4028 9.01343ZM36.7897 12.3245C36.7897 12.999 36.4831 13.9187 35.7473 13.9187C35.3181 13.9187 35.0728 13.5508 35.0728 12.8764C35.0728 11.834 35.502 11.2208 36.1152 11.2208C36.5444 11.2821 36.7897 11.5887 36.7897 12.3245Z"
              fill="white"/>
        <path d="M2.32789 15.0837L3.06368 10.5463L3.18632 15.0837H4.04474L5.70028 10.5463L5.0258 15.0837H6.37476L7.41714 9.01343H5.33238L4.04474 12.7537L3.98343 9.01343H2.14394L1.10156 15.0837H2.32789Z"
              fill="white"/>
        <path d="M21.9532 15.0838C22.3211 12.9991 22.3825 11.2822 23.3022 11.5888C23.4248 10.7917 23.6088 10.4238 23.7314 10.1172H23.4861C22.9343 10.1172 22.4438 10.853 22.4438 10.853L22.5664 10.1785H21.3401L20.543 15.0838H21.9532Z"
              fill="white"/>
        <path d="M29.8015 9.99463C28.9431 9.99463 28.2686 10.2399 28.2686 10.2399L28.0846 11.3436C28.0846 11.3436 28.6365 11.0983 29.4949 11.0983C29.9241 11.0983 30.292 11.1596 30.292 11.5275C30.292 11.7728 30.2307 11.8341 30.2307 11.8341H29.6789C28.5752 11.8341 27.4102 12.2633 27.4102 13.7349C27.4102 14.8999 28.146 15.1452 28.6365 15.1452C29.4949 15.1452 29.9241 14.5933 29.9854 14.5933L29.9241 15.0839H31.0891L31.5797 11.5889C31.5797 10.0559 30.2307 9.99463 29.8015 9.99463ZM30.1081 12.8152C30.1081 12.9991 29.9854 14.0415 29.2496 14.0415C28.8817 14.0415 28.7591 13.7349 28.7591 13.551C28.7591 13.2444 28.9431 12.8152 29.9241 12.8152C30.0468 12.8152 30.0468 12.8152 30.1081 12.8152Z"
              fill="white"/>
        <path d="M32.5587 15.0838C32.9266 12.9991 32.9879 11.2822 33.9077 11.5888C34.0303 10.7917 34.2143 10.4238 34.3369 10.1172H34.0916C33.5398 10.1172 33.0492 10.853 33.0492 10.853L33.1719 10.1785H31.9455L31.1484 15.0838H32.5587Z"
              fill="white"/>
    </symbol>


    <symbol id="icon-yandex_money" viewBox="0 0 30 28" fill="none" xmlns="http://www.w3.org/2000/svg">
        <path d="M29.6833 11.3681C29.5279 10.4356 28.6731 9.81396 27.5076 9.81396C27.119 9.81396 26.8082 9.81396 26.4197 9.81396C25.7204 9.73626 25.5649 9.96938 25.5649 10.5133C25.5649 13.233 25.5649 15.875 25.5649 18.5946C25.5649 19.9933 24.1663 21.4697 22.5345 21.7805C17.4059 22.9461 12.2774 24.034 7.14885 25.1996C6.60491 25.355 5.98328 25.355 5.36164 25.355C5.12853 25.355 4.74001 25.1996 4.6623 24.9664C4.5846 24.811 4.81771 24.5002 4.97312 24.3448C5.20623 24.1894 5.51706 24.034 5.82788 23.8786C6.76034 23.5678 7.77049 23.2569 8.70295 22.9461C12.5105 21.7028 16.318 20.4596 20.1256 19.1386C21.8351 18.5946 22.7676 17.4291 22.7676 15.9527C22.8453 11.2904 22.7676 6.55036 22.7676 1.88806C22.7676 1.11101 22.379 0.489368 21.5243 0.178548C20.5141 -0.209977 19.5816 0.100838 18.7269 0.489363C13.2875 3.05363 7.9259 5.6179 2.48655 8.18217C0.932446 8.95922 0 10.0471 0 11.6012C0 16.0304 0 20.4596 0 24.8887C0 25.1219 -1.89721e-05 25.355 0.077686 25.5104C0.621621 26.9868 2.02033 27.9192 3.88525 27.9192C7.6928 27.9192 11.5003 27.9192 15.3079 27.9192C19.1154 27.9192 22.8453 27.9192 26.6528 27.9192C27.5076 27.9192 28.2069 27.7638 28.8285 27.2199C29.6056 26.5983 29.6056 25.7435 29.6056 24.9664C29.6056 20.615 29.6056 16.3412 29.6056 11.9897C29.761 11.912 29.761 11.6012 29.6833 11.3681ZM13.8315 9.96938C14.22 8.95922 15.0748 8.33758 16.3181 8.18217C17.1728 8.10446 17.8721 8.57069 18.0275 9.34774C18.183 10.5133 16.7843 11.912 15.3079 11.912C14.1423 11.912 13.443 11.0573 13.8315 9.96938Z"
              fill="#E47418"/>
    </symbol>


    <symbol id="icon-qiwi" viewBox="0 0 32 33" fill="none" xmlns="http://www.w3.org/2000/svg">
        <path d="M24.7131 20.2123C25.247 20.4411 25.4758 21.2038 25.4758 21.5852C25.5521 22.1954 25.3995 22.5005 25.1707 22.5005C24.9419 22.5005 24.6368 22.2717 24.3317 21.7377C24.0266 21.2038 23.8741 20.6699 24.0266 20.3648C24.2555 20.2123 24.4843 20.136 24.7131 20.2123Z"
              fill="#F28A1A"/>
        <path d="M21.5837 22.5767C21.8888 22.5767 22.2702 22.7292 22.6515 23.0343C23.2617 23.5682 23.4905 24.1784 23.1854 24.636C23.0329 24.8648 22.6515 25.0174 22.3464 25.0174C21.9651 25.0174 21.5837 24.8648 21.3549 24.636C20.7447 24.1021 20.5922 23.3394 20.9735 22.8818C21.0498 22.7292 21.2786 22.5767 21.5837 22.5767Z"
              fill="#F28A1A"/>
        <path d="M14.3392 28.6022C6.4069 28.6022 0 22.1953 0 14.3392C0 6.48317 6.4069 0 14.3392 0C22.2716 0 28.6785 6.4069 28.6785 14.3392C28.6785 17.0088 27.9158 19.5258 26.6954 21.6614C26.6191 21.7377 26.5429 21.7377 26.5429 21.5851C26.009 18.0766 23.8733 16.1698 20.8224 15.5596C20.5173 15.4833 20.5173 15.3308 20.8987 15.3308C21.8902 15.2545 23.1869 15.2545 23.9496 15.4071C24.0259 15.0257 24.0259 14.6443 24.0259 14.3392C24.0259 9.15271 19.7546 4.88145 14.5681 4.88145C9.38153 4.88145 5.11026 9.15271 5.11026 14.3392C5.11026 19.5258 9.38153 23.7971 14.5681 23.7971H15.0257C14.8732 22.9581 14.7969 22.1191 14.8732 21.2038C14.8732 20.5936 15.0257 20.5173 15.2545 20.975C16.5512 23.2631 18.458 25.2462 22.1191 26.0852C25.0937 26.7717 28.0683 27.5344 31.348 31.5769C31.6531 31.9582 31.1955 32.3396 30.8904 32.0345C27.6107 29.1361 24.636 28.1446 21.8902 28.1446C18.458 28.2209 16.3986 28.6022 14.3392 28.6022Z"
              fill="#F28A1A"/>
    </symbol>


    <symbol id="icon-rub-thin" xmlns="http://www.w3.org/2000/svg" viewBox="0 0 72.5 100">
        <path style="fill-rule: evenodd"
              d="M5 0h40a27.5 27.5 0 0 1 0 55h-30v6h38v10h-38v29h-10v-29h-5v-10h5v-6h-5v-10h5zM15 10h30a17.5 17.5 0 0 1 0 35h-30z"/>
    </symbol>


    <symbol id="icon-shield" enable-background="new 0 0 512 512" viewBox="0 0 512 512"
            xmlns="http://www.w3.org/2000/svg">
        <path d="m459.669 82.906-196-81.377c-4.91-2.038-10.429-2.039-15.338 0l-196 81.377c-7.465 3.1-12.331 10.388-12.331 18.471v98.925c0 136.213 82.329 258.74 208.442 310.215 4.844 1.977 10.271 1.977 15.116 0 126.111-51.474 208.442-174.001 208.442-310.215v-98.925c0-8.083-4.865-15.371-12.331-18.471zm-27.669 117.396c0 115.795-68 222.392-176 269.974-105.114-46.311-176-151.041-176-269.974v-85.573l176-73.074 176 73.074zm-198.106 67.414 85.964-85.963c7.81-7.81 20.473-7.811 28.284 0s7.81 20.474-.001 28.284l-100.105 100.105c-7.812 7.812-20.475 7.809-28.284 0l-55.894-55.894c-7.811-7.811-7.811-20.474 0-28.284s20.474-7.811 28.284 0z"/>
    </symbol>


    <symbol id="icon-phone" xmlns="http://www.w3.org/2000/svg" xmlns:xlink="http://www.w3.org/1999/xlink"
            viewBox="0 0 511.999 511.999" style="enable-background:new 0 0 511.999 511.999;" xml:space="preserve">
            <path d="M267.998,61.092c0.337,0,0.665-0.002,1-0.002c48.74,0,94.412,18.844,128.686,53.118
                c34.557,34.557,53.459,80.618,53.225,129.697c-0.052,11.045,8.859,20.042,19.905,20.095c0.033,0,0.064,0,0.097,0
                c10.999,0,19.944-8.892,19.997-19.905c0.285-59.837-22.778-116.009-64.94-158.172C384.134,44.088,328.43,21.09,269.004,21.09
                c-0.365,0-0.733,0.001-1.099,0.002c-11.046,0.053-19.957,9.05-19.905,20.095C248.053,52.2,256.997,61.092,267.998,61.092z"/>
        <path d="M511.949,412.553c-0.714-19.805-8.964-38.287-23.229-52.042c-27.931-26.933-51.332-42.481-73.646-48.929
                c-30.75-8.887-59.226-0.805-84.641,24.016c-0.038,0.037-0.077,0.075-0.115,0.113l-27.066,26.865
                c-16.811-9.444-49.491-30.227-85.234-65.971l-2.632-2.63c-35.508-35.507-56.423-68.373-65.939-85.253l26.839-27.041
                c0.038-0.038,0.075-0.076,0.113-0.115c24.821-25.414,32.902-53.892,24.016-84.64c-6.448-22.313-21.995-45.715-48.929-73.646
                C137.731,9.015,119.249,0.765,99.446,0.051C79.647-0.662,60.614,6.232,45.865,19.472l-0.574,0.516
                c-0.267,0.239-0.527,0.486-0.78,0.739c-29.36,29.358-44.75,70.46-44.508,118.861c0.41,82.22,45.599,176.249,120.879,251.528
                c0.063,0.063,0.125,0.124,0.188,0.186c14.152,14.132,30.22,28.116,47.762,41.567c8.765,6.721,21.319,5.063,28.041-3.702
                c6.721-8.766,5.064-21.32-3.702-28.041c-16.236-12.448-31.041-25.333-44.004-38.296c-0.062-0.062-0.124-0.124-0.187-0.185
                C81.095,294.683,40.361,211.239,40.002,139.387c-0.186-37.276,11.027-68.389,32.431-90.014l0.153-0.138
                c14.538-13.048,36.548-12.254,50.108,1.808c51.781,53.698,48.031,79.049,25.151,102.511l-37.074,37.353
                c-5.814,5.858-7.433,14.686-4.075,22.226c0.941,2.114,23.709,52.427,80.414,109.132l2.632,2.629
                c56.698,56.699,107.011,79.466,109.125,80.408c7.54,3.359,16.368,1.739,22.226-4.075l37.346-37.068
                c23.466-22.883,48.818-26.638,102.518,25.145c14.062,13.56,14.856,35.57,1.81,50.105l-0.141,0.157
                c-21.45,21.229-52.231,32.433-89.102,32.433c-0.303,0-0.608,0-0.912-0.002c-29.471-0.147-63.598-8.226-98.689-23.362
                c-10.142-4.376-21.911,0.3-26.286,10.443c-4.375,10.142,0.301,21.911,10.443,26.286c40.562,17.496,79.029,26.456,114.332,26.633
                c0.375,0.001,0.748,0.002,1.122,0.002c47.914-0.001,88.608-15.379,117.738-44.51c0.254-0.254,0.5-0.513,0.739-0.78l0.519-0.577
                C505.766,451.385,512.663,432.357,511.949,412.553z"/>
        <path d="M369.457,142.549c-21.453-21.454-42.043-27.147-51.939-29.884c-10.649-2.945-21.663,3.299-24.607,13.946
                c-2.944,10.646,3.299,21.663,13.946,24.607c8.092,2.238,20.32,5.62,34.316,19.615c13.473,13.473,17.052,25.636,19.421,33.685
                l0.289,0.979c2.574,8.697,10.538,14.329,19.169,14.329c1.88,0.001,3.792-0.267,5.686-0.828
                c10.591-3.135,16.636-14.263,13.5-24.854l-0.271-0.918C395.882,182.744,390.14,163.232,369.457,142.549z"/>
    </symbol>


    <symbol id="icon-email" xmlns="http://www.w3.org/2000/svg" xmlns:xlink="http://www.w3.org/1999/xlink"
            viewBox="0 0 184 184" style="enable-background:new 0 0 184 184;" xml:space="preserve">
            <path style="fill:#1D1D1B;" d="M160.746,24.61H23.254C10.432,24.61,0,35.042,0,47.864v88.271c0,12.822,10.432,23.254,23.254,23.254
                h137.492c12.822,0,23.254-10.432,23.254-23.254V47.864C184,35.042,173.568,24.61,160.746,24.61z M157.113,39.61L92,89.909
                L26.887,39.61H157.113z M160.746,144.39H23.254c-4.551,0-8.254-3.703-8.254-8.254V49.382l72.415,55.94
                c1.35,1.043,2.968,1.564,4.585,1.564s3.235-0.521,4.585-1.564L169,49.382v86.753C169,140.687,165.297,144.39,160.746,144.39z"/>
    </symbol>


    <symbol id="icon-bell" style="enable-background:new 0 0 32 32;" viewBox="0 0 32 32" xml:space="preserve"
         xmlns="http://www.w3.org/2000/svg" xmlns:xlink="http://www.w3.org/1999/xlink">
        <style type="text/css">
<!--            .st0{fill:none;stroke:#000000;stroke-width:2;stroke-linecap:round;stroke-linejoin:round;stroke-miterlimit:10;}-->
        </style>
        <path class="st0"
              fill="none"
              stroke="#000000"
              stroke-width="2.55px"
              stroke-linecap="round"
              stroke-linejoin="round"
              stroke-miterlimit="10"
              d="M27.8,23.2l-1.1-1.7c-1.9-2.8-2.9-6.1-2.9-9.5c0-3.6-2.4-6.5-5.6-7.5C17.9,3.6,17,3,16,3s-1.9,0.6-2.2,1.5  c-3.2,1-5.6,3.9-5.6,7.5c0,3.4-1,6.7-2.9,9.5l-1.1,1.7C3.7,24,4.2,25,5.2,25h21.6C27.8,25,28.3,24,27.8,23.2z"/>
        <path class="st0" d="M20,25c0,2.2-1.8,4-4,4s-4-1.8-4-4"/>
    </symbol>

</svg>